<svg id="Calque_1" data-name="Calque 1" xmlns="http://www.w3.org/2000/svg" viewBox="0 0 961.47 705.36"><defs><style>.cls-1{fill:#fef6eb;}</style></defs><path class="cls-1" d="M205.56,460.46a54.5,54.5,0,0,0-9.4-2.31l-10-1.54a94.57,94.57,0,0,1-9.65-2A25.77,25.77,0,0,1,168.3,451a17.59,17.59,0,0,1-5.72-6.76c-1.43-2.84-2.14-6.55-2.14-11.1v-4.28l3.25-32.64a19.74,19.74,0,0,1,1.19-2.13c.35-.52,1.09-.77,2.23-.77a5.76,5.76,0,0,1,5.47,3.24,209.73,209.73,0,0,1,11.36,17.95q4.88,8.72,10.51,18.46c.45,1.14,1.68,2.25,3.67,3.33a65.87,65.87,0,0,0,7.1,3.24c2.73,1.09,5.69,2.08,8.88,3s6.24,1.7,9.15,2.39,5.52,1.22,7.86,1.62a34.07,34.07,0,0,0,5.21.6h3.25c1.82,0,2.84-.11,3.07-.34l1.8-1.2c.85-.57,1.76-1.19,2.73-1.88s1.88-1.31,2.74-1.88l1.79-1.19a7.35,7.35,0,0,1,2.39-1.37,7.78,7.78,0,0,1,2.4-.69l7-1.87c.46,0,1.48-1.23,3.08-3.68s3.25-5.15,5-8.12q3.08-5.12,6.49-11.79c0-.23.06-.85.17-1.88s.2-2.14.26-3.33.14-2.34.25-3.42a23.13,23.13,0,0,0,.17-2.31v-2.73c0-1.25,0-2.36-.08-3.33a26.21,26.21,0,0,0-.34-2.91c-.17-1-.4-2-.69-3.16s-.65-2.51-1.11-4.1l-.34-1a15.62,15.62,0,0,0-3.5-3.42,20.72,20.72,0,0,1-3.85-3.58,52.71,52.71,0,0,1-2.9-4.45,16.68,16.68,0,0,0-1.71-2.56A8.48,8.48,0,0,0,262,369q-1.54-.86-5-2.39a16.08,16.08,0,0,1-1.88-.52,7.66,7.66,0,0,1-2.56-1.19,20,20,0,0,0-4.62-2,29.91,29.91,0,0,0-4.53-.85l-4.7-.51a23.66,23.66,0,0,1-5-1.12,22.48,22.48,0,0,1-3.93-3.84,12,12,0,0,0-4.45-3.33,11,11,0,0,1-1.79-.26c-.86-.17-1.77-.37-2.74-.6s-1.88-.43-2.73-.6a11.37,11.37,0,0,0-1.62-.25l-8.89-9.23a20.68,20.68,0,0,0-4.36-2.48c-1.31-.51-2.54-1-3.67-1.45s-2.25-1-3.34-1.54a18.59,18.59,0,0,1-3.67-2.73,11,11,0,0,1-2.31-2.74A19.71,19.71,0,0,1,189,328.7c-.34-.91-.66-1.82-.94-2.74a11.58,11.58,0,0,0-1.28-2.73,13,13,0,0,0-1.45-3.25c-.75-1.25-1.34-2.22-1.8-2.9q-3.93-4.62-6.32-7.95a30.07,30.07,0,0,1-3.67-6.58,27.07,27.07,0,0,1-1.71-7.09,90.75,90.75,0,0,1-.43-9.83,69.58,69.58,0,0,1,1.71-14.95A79.92,79.92,0,0,1,178,255.55a76.61,76.61,0,0,1,8-13.84,53.53,53.53,0,0,1,10.68-11.11,10.43,10.43,0,0,1,3.85-2.48A23.27,23.27,0,0,1,205,227a42.52,42.52,0,0,1,4.7-.42,24.73,24.73,0,0,0,4.61-.6,17.65,17.65,0,0,0,4.19-1.54q2-1,3.93-2.14a34.32,34.32,0,0,1,4.1-2,12.12,12.12,0,0,1,4.53-.86,108.19,108.19,0,0,1,13.93.86A127.1,127.1,0,0,1,258,222.74a41.38,41.38,0,0,1,8.12,2.73,19.41,19.41,0,0,0,8.29,1.71,9.94,9.94,0,0,0,5.9-1.88,59.6,59.6,0,0,0,5.21-4.18,46.57,46.57,0,0,1,5.38-4.19,11.32,11.32,0,0,1,6.41-1.88,4.13,4.13,0,0,1,4.27,3.08,18.24,18.24,0,0,1,1,5.81L299.38,235l1.37,20.17v4.44q0,4.62-.26,7.78a50.57,50.57,0,0,1-1.45,7.95,4.17,4.17,0,0,1-1.11,1.54,2.19,2.19,0,0,1-1.28.68c0,.23-.4.34-1.2.34-.57,0-1.45-.74-2.65-2.22s-2.62-3.36-4.27-5.64-3.39-4.79-5.21-7.52-3.65-5.38-5.47-7.95-3.56-4.87-5.21-6.92a20.18,20.18,0,0,0-4.36-4.27,35.74,35.74,0,0,0-7.52-3.68,53.86,53.86,0,0,0-8.55-2.22q-4.44-.77-8.88-1.11c-3-.22-5.7-.34-8.21-.34a40.24,40.24,0,0,0-9.74,1,20.62,20.62,0,0,0-7.17,3.24,22.56,22.56,0,0,0-5.47,5.73,48.41,48.41,0,0,0-4.45,8.29c-1.14,2.5-2.08,4.5-2.82,6s-1.36,2.85-1.88,4.1a18.3,18.3,0,0,0-1.11,4,36.87,36.87,0,0,0,10.94,33,44,44,0,0,0,12,8,100.39,100.39,0,0,0,14.53,5.38l1.71,1.2q4.09,2.56,7.26,4.36c2.11,1.19,4.13,2.28,6.07,3.25s4,1.9,6.07,2.82,4.52,2,7.26,3.24l19.82,12.65a2.84,2.84,0,0,1,.77.6,6.43,6.43,0,0,0,.94.77,10.63,10.63,0,0,1,1.2,1l3.07,8.55a21.81,21.81,0,0,1,1.29,2.65,6.35,6.35,0,0,0,1.28,2.13,11.78,11.78,0,0,1,1.71,1.71c.79.91,1.62,1.91,2.47,3s1.6,2.11,2.23,3.08a5.1,5.1,0,0,1,.94,2c.34.69.77,1.69,1.28,3s1,2.65,1.54,4,1,2.68,1.36,3.93a10.42,10.42,0,0,1,.6,2.73v25.13a21.7,21.7,0,0,1-.77,2.22,18.94,18.94,0,0,1-1.62,3.42,1.57,1.57,0,0,0-.86.85,6.42,6.42,0,0,0-.34.86c-.11.34-.37,1.08-.77,2.22s-.82,2.39-1.28,3.76-.91,2.62-1.37,3.76a7.68,7.68,0,0,1-1,2A11.43,11.43,0,0,1,299,429a28.8,28.8,0,0,1-2.82,3.25,40.35,40.35,0,0,1-3,2.74q-1.45,1.19-2.13,1.71a8.16,8.16,0,0,0-1.71,4.44,4.39,4.39,0,0,1-2.05,3.59,46.44,46.44,0,0,0-10.94,5.38q-4.28,3-8.12,5.64a48.82,48.82,0,0,1-8.11,4.53,26.9,26.9,0,0,1-10.77,1.88h-2.05q-4.62-.35-6.07-.43c-1-.05-1.68-.08-2.14-.08Z" transform="translate(-59.61 -215.05)"/><path class="cls-1" d="M319.72,455.67a6,6,0,0,1,2.13-4.95,15.86,15.86,0,0,1,5-2.65,52,52,0,0,1,5.89-1.54,14.26,14.26,0,0,0,4.87-1.79,13.93,13.93,0,0,0,1.37-1.11l1.88-1.71a25.78,25.78,0,0,1,2-1.71c.68-.51,1.2-.88,1.54-1.11l8.2-4.1q1.55-.69,3.85-3.93c1.54-2.17,3.07-4.59,4.61-7.27s3-5.3,4.36-7.86,2.33-4.47,2.9-5.72a3.76,3.76,0,0,0,.52-1.88c.11-1,.17-1.83.17-2.4a10.72,10.72,0,0,1,.68-1.79,4.79,4.79,0,0,0,.51-1.45,12.77,12.77,0,0,0,1.2-1.63c.57-.85,1.2-1.73,1.88-2.65s1.28-1.79,1.8-2.65.82-1.39.94-1.62a3.42,3.42,0,0,0,.34-1.28c.11-.74.22-1.54.34-2.39s.23-1.68.34-2.48.17-1.31.17-1.54a74.68,74.68,0,0,1,3-11q2-5.55,3.93-11t3.51-11.11a65.61,65.61,0,0,0,2.05-11.45l11.79-32.47a52.78,52.78,0,0,0,2.82-14.45A69.7,69.7,0,0,1,406.88,280a93.42,93.42,0,0,1,7-13.07,116.23,116.23,0,0,0,7.52-13.76,32.44,32.44,0,0,0,1.46-7.95,15.51,15.51,0,0,1,2.64-7.77,49.42,49.42,0,0,1,4.28-4.62c2.28-2.27,4.72-4.61,7.35-7a89.3,89.3,0,0,1,7.69-6.33c2.5-1.82,4.33-2.73,5.47-2.73q3.24,0,4.44,2.39a8.6,8.6,0,0,1,1.79,2.22,6.42,6.42,0,0,1,.94,1.88,34.35,34.35,0,0,0,2.4,6.16,38.69,38.69,0,0,1,2.56,6.66l-.17,3.76a13,13,0,0,0,1.11,5q1.11,2.65,1.79,4.36,1.89,6,3.34,11.62t2.3,11.28a22.21,22.21,0,0,0,2.22,6.24,13.1,13.1,0,0,1,1.54,6.41l-.17,2.73a29.53,29.53,0,0,1,4.62,5,23.42,23.42,0,0,1,2.47,4.53c.63,1.53,1.26,3.19,1.88,4.95a46.81,46.81,0,0,0,3,6.41,37.73,37.73,0,0,1,2.57,6.41c.57,2,1,4,1.45,6.07s.83,4.21,1.28,6.49a44.87,44.87,0,0,0,2.22,7.35,16.06,16.06,0,0,0,1.12,2.9,8.94,8.94,0,0,1,.94,2.74v6.49a4.51,4.51,0,0,0,.68,1.54c.45.8,1,1.68,1.54,2.65s1.08,1.91,1.53,2.82a5.35,5.35,0,0,1,.69,1.88c0,.11,0,.43.08.94s.12,1.08.17,1.71.15,1.22.26,1.79.23.86.34.86l4.79,4.78a4.67,4.67,0,0,1,1.54,2.39,24.28,24.28,0,0,1,.51,3c.11,1.08.23,2.16.34,3.24a7.94,7.94,0,0,0,1,3.16A97.56,97.56,0,0,1,513,387.4a59.89,59.89,0,0,0,4.11,10,52.15,52.15,0,0,1,2.56,7.6,31.6,31.6,0,0,1,1,7.78v2.05a40,40,0,0,0,4.95,7,38.49,38.49,0,0,1,4.44,6,26.12,26.12,0,0,0,3.25,6,23.21,23.21,0,0,0,3.33,3.59,16.29,16.29,0,0,0,3.17,2.13c1,.52,2,1.06,3.07,1.63a30,30,0,0,0,7.78,3.25q4,1,10.17,2.05l4.78,1.19a5.85,5.85,0,0,1,2.74,4,24.61,24.61,0,0,1,.51,4.53,5.56,5.56,0,0,1-2.82,5.21,11.39,11.39,0,0,1-5.73,1.62l-14.52-.85h-3.59a6.55,6.55,0,0,0-2.31-1.11,16.5,16.5,0,0,0-3-.6,26.53,26.53,0,0,0-2.82-.17,4.68,4.68,0,0,1-1.62-.17H512.15a5,5,0,0,0-2.48-2.14,15,15,0,0,0-3.16-.25,63.38,63.38,0,0,0-14.61,1.79,70,70,0,0,1-16.15,1.79H472c-1.82,0-3.56-.05-5.21-.17a9.15,9.15,0,0,1-4.36-1.36c-.57-.35-.86-1.31-.86-2.91l.35-2.73a4.35,4.35,0,0,0,.34-1.54v-1a1.44,1.44,0,0,1,1-1.53,29.62,29.62,0,0,1,7-2.06q3.93-.68,7.52-1.53a20.46,20.46,0,0,0,6.07-2.4,5.06,5.06,0,0,0,2.47-4.61v-.34q-.16-3.93-.59-9c-.29-3.36-.43-6.7-.43-10a7.08,7.08,0,0,0-1.11-3.59,8.7,8.7,0,0,1-1.28-3.42V402.7a42.19,42.19,0,0,0-2.14-7.1,71.1,71.1,0,0,0-4.44-9.65,53.87,53.87,0,0,0-5.73-8.46q-3.08-3.67-6.15-3.68a24.58,24.58,0,0,0-9.14,1.88,25.27,25.27,0,0,1-9.49,1.88,19,19,0,0,1-7.77-1.62,21.3,21.3,0,0,0-8.63-1.62H418.5a64.08,64.08,0,0,0-7.27.42,16.59,16.59,0,0,0-6.75,2.31,37.83,37.83,0,0,0-9.74,8.29,32.58,32.58,0,0,0-6.49,12.9l-1.2,12a9.86,9.86,0,0,1-.34,1.7c-.23.92-.46,1.88-.68,2.91s-.46,2-.69,2.82a8.7,8.7,0,0,0-.34,1.62,5,5,0,0,1-.17,1,5.84,5.84,0,0,0-.17,1.37,7.45,7.45,0,0,0,1,4.44,41.19,41.19,0,0,1,2.56,4.1c.57,1,1.34,2.39,2.31,4.1a31,31,0,0,0,3,4.45A17.28,17.28,0,0,0,400,442q4,1.2,7.94,2.57a26,26,0,0,1,6.75,3.41,6.6,6.6,0,0,1,2.82,5.64v1.2q-.86,6.66-5,8.8a23,23,0,0,1-10.6,2.14l-14.87-3.93H380.9q-3.07,0-6.32.17t-6.24.51a38.9,38.9,0,0,0-5.3.94,10.69,10.69,0,0,0-3.5,1.45q-4.28,0-8.46.17c-2.79.12-5.3.23-7.52.35l-5.47.25-2.48.09a20.38,20.38,0,0,1-4.95-.69,21.32,21.32,0,0,1-5.22-2.05,15.71,15.71,0,0,1-4.1-3.16A6,6,0,0,1,319.72,455.67Zm88-115.86c-.11,1.25-.23,2.47-.34,3.67s-.17,2.31-.17,3.33q0,4.79,2.22,6.41c1.48,1.09,3.76,1.62,6.84,1.62a1.15,1.15,0,0,0,.85-.34,1.87,1.87,0,0,0,.34-.51,22.63,22.63,0,0,0,2.31-.34l2.82-.51a24.23,24.23,0,0,1,3,.51,10.56,10.56,0,0,0,2.31.34h26.83q11.63,0,11.62-10.6a9.94,9.94,0,0,0-1.11-3.93q-1.11-2.38-2.65-5.21c-1-1.88-2-3.84-3-5.89a30.71,30.71,0,0,1-2.14-6,2.8,2.8,0,0,0-.85-2.05l-8-12a3,3,0,0,0-.6-1.71,8.54,8.54,0,0,1-.94-1.71l-.86-3.59q-.85-3.59-2.05-8.71a80.92,80.92,0,0,0-2.9-9.74,38.38,38.38,0,0,0-3.85-7.86q-2.13-3.26-4.7-3.25-1.53,0-3.93,4.44t-5.21,11.28q-2.82,6.84-5.64,15.13t-5,15.8q-2.22,7.53-3.68,13.42A41.34,41.34,0,0,0,407.73,339.81Z" transform="translate(-59.61 -215.05)"/><path class="cls-1" d="M620.84,460.46a54.05,54.05,0,0,0-9.4-2.31l-10-1.54a94.77,94.77,0,0,1-9.66-2,25.62,25.62,0,0,1-8.2-3.67,17.53,17.53,0,0,1-5.73-6.76,24.9,24.9,0,0,1-2.14-11.1v-4.28L579,396.2a21.38,21.38,0,0,1,1.2-2.13c.34-.52,1.08-.77,2.22-.77a5.76,5.76,0,0,1,5.47,3.24,204.9,204.9,0,0,1,11.36,17.95q4.88,8.72,10.51,18.46c.46,1.14,1.68,2.25,3.68,3.33a65.64,65.64,0,0,0,7.09,3.24c2.73,1.09,5.7,2.08,8.89,3s6.23,1.7,9.14,2.39,5.52,1.22,7.86,1.62a34.07,34.07,0,0,0,5.21.6h3.25c1.82,0,2.85-.11,3.08-.34l1.79-1.2c.86-.57,1.77-1.19,2.74-1.88s1.88-1.31,2.73-1.88l1.79-1.19a7.42,7.42,0,0,1,2.4-1.37,7.67,7.67,0,0,1,2.39-.69l7-1.87c.45,0,1.48-1.23,3.07-3.68s3.25-5.15,5-8.12q3.08-5.12,6.49-11.79c0-.23.06-.85.17-1.88s.2-2.14.26-3.33.14-2.34.26-3.42.17-1.85.17-2.31v-2.73q0-1.87-.09-3.33a26.21,26.21,0,0,0-.34-2.91c-.17-1-.4-2-.68-3.16s-.66-2.51-1.11-4.1l-.35-1a15.62,15.62,0,0,0-3.5-3.42,20.35,20.35,0,0,1-3.84-3.58q-2.06-2.91-2.91-4.45a16.68,16.68,0,0,0-1.71-2.56,8.48,8.48,0,0,0-2.39-1.88q-1.54-.86-5-2.39a16.7,16.7,0,0,1-1.88-.52,7.76,7.76,0,0,1-2.56-1.19,20,20,0,0,0-4.62-2,30,30,0,0,0-4.52-.85l-4.7-.51a23.6,23.6,0,0,1-5-1.12,22.48,22.48,0,0,1-3.93-3.84,12.05,12.05,0,0,0-4.44-3.33,11,11,0,0,1-1.8-.26c-.85-.17-1.77-.37-2.73-.6s-1.88-.43-2.74-.6a11.17,11.17,0,0,0-1.62-.25l-8.89-9.23a20.63,20.63,0,0,0-4.35-2.48c-1.32-.51-2.54-1-3.68-1.45a35.91,35.91,0,0,1-3.33-1.54,18.33,18.33,0,0,1-3.68-2.73,10.94,10.94,0,0,1-2.3-2.74,19.79,19.79,0,0,1-1.29-2.73c-.34-.91-.65-1.82-.94-2.74a11.58,11.58,0,0,0-1.28-2.73,13,13,0,0,0-1.45-3.25c-.74-1.25-1.34-2.22-1.79-2.9-2.63-3.08-4.73-5.73-6.33-7.95a30.49,30.49,0,0,1-3.67-6.58,27.07,27.07,0,0,1-1.71-7.09,90.75,90.75,0,0,1-.43-9.83,69.58,69.58,0,0,1,1.71-14.95,79.25,79.25,0,0,1,5-15.13,76,76,0,0,1,7.94-13.84A53.83,53.83,0,0,1,612,230.6a10.4,10.4,0,0,1,3.84-2.48,23.46,23.46,0,0,1,4.44-1.11,42.74,42.74,0,0,1,4.7-.42,24.73,24.73,0,0,0,4.62-.6,17.58,17.58,0,0,0,4.18-1.54q2-1,3.94-2.14a32.9,32.9,0,0,1,4.1-2,12,12,0,0,1,4.53-.86,108,108,0,0,1,13.92.86,127.29,127.29,0,0,1,13.08,2.39,41.83,41.83,0,0,1,8.12,2.73,19.37,19.37,0,0,0,8.28,1.71,9.92,9.92,0,0,0,5.9-1.88,58.14,58.14,0,0,0,5.21-4.18,46.68,46.68,0,0,1,5.39-4.19,11.29,11.29,0,0,1,6.4-1.88,4.14,4.14,0,0,1,4.28,3.08,18.49,18.49,0,0,1,1,5.81L714.67,235,716,255.21v4.44q0,4.62-.25,7.78a50.77,50.77,0,0,1-1.46,7.95,4.17,4.17,0,0,1-1.11,1.54,2.19,2.19,0,0,1-1.28.68c0,.23-.4.34-1.2.34q-.86,0-2.64-2.22t-4.28-5.64q-2.47-3.42-5.21-7.52t-5.47-7.95q-2.73-3.84-5.21-6.92a20,20,0,0,0-4.36-4.27,35.5,35.5,0,0,0-7.52-3.68,53.74,53.74,0,0,0-8.54-2.22q-4.46-.77-8.89-1.11c-3-.22-5.7-.34-8.2-.34a40.18,40.18,0,0,0-9.74,1,20.59,20.59,0,0,0-7.18,3.24,22.73,22.73,0,0,0-5.47,5.73,47.72,47.72,0,0,0-4.44,8.29c-1.14,2.5-2.08,4.5-2.82,6s-1.37,2.85-1.88,4.1a17.26,17.26,0,0,0-1.11,4,36.83,36.83,0,0,0,10.93,33,44.07,44.07,0,0,0,12,8,100.26,100.26,0,0,0,14.52,5.38l1.71,1.2c2.74,1.71,5.15,3.16,7.26,4.36s4.13,2.28,6.07,3.25,4,1.9,6.07,2.82,4.53,2,7.26,3.24l19.83,12.65a3,3,0,0,1,.76.6,7,7,0,0,0,.94.77,10.63,10.63,0,0,1,1.2,1l3.08,8.55a23.41,23.41,0,0,1,1.28,2.65,6.52,6.52,0,0,0,1.28,2.13,11.78,11.78,0,0,1,1.71,1.71c.8.91,1.62,1.91,2.48,3s1.59,2.11,2.22,3.08a5.1,5.1,0,0,1,.94,2c.34.69.77,1.69,1.28,3s1,2.65,1.54,4,1,2.68,1.37,3.93a10.72,10.72,0,0,1,.59,2.73v25.13a28.28,28.28,0,0,1-2.39,5.64,1.53,1.53,0,0,0-.85.85,5.31,5.31,0,0,0-.34.86c-.12.34-.38,1.08-.77,2.22s-.83,2.39-1.29,3.76-.91,2.62-1.36,3.76a7.91,7.91,0,0,1-1,2,11.63,11.63,0,0,1-1.79,3.24,31,31,0,0,1-2.82,3.25c-1,1-2,1.94-3,2.74s-1.68,1.36-2.14,1.71a8.24,8.24,0,0,0-1.71,4.44,4.37,4.37,0,0,1-2.05,3.59,46.64,46.64,0,0,0-10.94,5.38q-4.27,3-8.11,5.64a48.91,48.91,0,0,1-8.12,4.53,26.9,26.9,0,0,1-10.77,1.88h-2.05q-4.62-.35-6.07-.43c-1-.05-1.68-.08-2.13-.08Z" transform="translate(-59.61 -215.05)"/><path class="cls-1" d="M800.29,460.46a54.5,54.5,0,0,0-9.4-2.31l-10-1.54a95.32,95.32,0,0,1-9.66-2A25.72,25.72,0,0,1,763,451a17.7,17.7,0,0,1-5.73-6.76,24.91,24.91,0,0,1-2.13-11.1v-4.28l3.25-32.64a19.74,19.74,0,0,1,1.19-2.13c.34-.52,1.08-.77,2.22-.77a5.75,5.75,0,0,1,5.47,3.24,207.49,207.49,0,0,1,11.37,17.95q4.86,8.72,10.51,18.46c.45,1.14,1.68,2.25,3.67,3.33a65.64,65.64,0,0,0,7.09,3.24c2.74,1.09,5.7,2.08,8.89,3s6.24,1.7,9.14,2.39,5.53,1.22,7.86,1.62a34.3,34.3,0,0,0,5.22.6h3.24c1.83,0,2.85-.11,3.08-.34l1.8-1.2c.85-.57,1.76-1.19,2.73-1.88s1.88-1.31,2.73-1.88l1.8-1.19a7.24,7.24,0,0,1,2.39-1.37,7.82,7.82,0,0,1,2.39-.69l7-1.87q.67,0,3.08-3.68t5-8.12q3.07-5.12,6.5-11.79c0-.23,0-.85.17-1.88s.19-2.14.25-3.33.14-2.34.26-3.42.17-1.85.17-2.31v-2.73q0-1.87-.09-3.33a24,24,0,0,0-.34-2.91c-.17-1-.4-2-.68-3.16s-.66-2.51-1.11-4.1l-.34-1a15.67,15.67,0,0,0-3.51-3.42,21,21,0,0,1-3.84-3.58q-2.06-2.91-2.91-4.45a16.68,16.68,0,0,0-1.71-2.56,8.34,8.34,0,0,0-2.39-1.88c-1-.57-2.68-1.37-4.95-2.39a15.51,15.51,0,0,1-1.88-.52,7.82,7.82,0,0,1-2.57-1.19,19.72,19.72,0,0,0-4.61-2,29.91,29.91,0,0,0-4.53-.85l-4.7-.51a23.6,23.6,0,0,1-5-1.12,23.2,23.2,0,0,1-3.93-3.84,12,12,0,0,0-4.44-3.33,11,11,0,0,1-1.79-.26c-.86-.17-1.77-.37-2.74-.6s-1.88-.43-2.73-.6a11.43,11.43,0,0,0-1.63-.25l-8.88-9.23a20.68,20.68,0,0,0-4.36-2.48c-1.31-.51-2.54-1-3.68-1.45A35.91,35.91,0,0,1,791,336.9a18.3,18.3,0,0,1-3.67-2.73,10.79,10.79,0,0,1-2.31-2.74,19.71,19.71,0,0,1-1.28-2.73c-.34-.91-.66-1.82-.94-2.74a12.43,12.43,0,0,0-1.28-2.73A13,13,0,0,0,780,320c-.74-1.25-1.34-2.22-1.79-2.9q-3.93-4.62-6.32-7.95a30.55,30.55,0,0,1-3.68-6.58,27.88,27.88,0,0,1-1.71-7.09,93.78,93.78,0,0,1-.42-9.83,69.55,69.55,0,0,1,1.7-14.95,79.25,79.25,0,0,1,5-15.13,75.44,75.44,0,0,1,8-13.84A53.53,53.53,0,0,1,791.4,230.6a10.48,10.48,0,0,1,3.84-2.48,23.56,23.56,0,0,1,4.45-1.11,42.52,42.52,0,0,1,4.7-.42A24.73,24.73,0,0,0,809,226a17.65,17.65,0,0,0,4.19-1.54q2-1,3.93-2.14a33.6,33.6,0,0,1,4.1-2,12,12,0,0,1,4.53-.86,108.19,108.19,0,0,1,13.93.86,127.6,127.6,0,0,1,13.07,2.39,41.6,41.6,0,0,1,8.12,2.73,19.41,19.41,0,0,0,8.29,1.71,9.89,9.89,0,0,0,5.89-1.88,58.25,58.25,0,0,0,5.22-4.18,45.73,45.73,0,0,1,5.38-4.19,11.32,11.32,0,0,1,6.41-1.88,4.13,4.13,0,0,1,4.27,3.08,18.52,18.52,0,0,1,1,5.81L894.11,235l1.37,20.17v4.44q0,4.62-.26,7.78a51.77,51.77,0,0,1-1.45,7.95,4.17,4.17,0,0,1-1.11,1.54,2.21,2.21,0,0,1-1.29.68c0,.23-.4.34-1.19.34-.57,0-1.45-.74-2.65-2.22s-2.62-3.36-4.27-5.64-3.39-4.79-5.22-7.52-3.64-5.38-5.46-7.95-3.57-4.87-5.22-6.92a19.74,19.74,0,0,0-4.36-4.27,35.65,35.65,0,0,0-7.51-3.68,54.14,54.14,0,0,0-8.55-2.22c-3-.51-5.93-.88-8.89-1.11s-5.69-.34-8.2-.34a40.18,40.18,0,0,0-9.74,1,20.67,20.67,0,0,0-7.18,3.24,22.91,22.91,0,0,0-5.47,5.73,49.11,49.11,0,0,0-4.44,8.29c-1.14,2.5-2.08,4.5-2.82,6s-1.37,2.85-1.88,4.1a18.3,18.3,0,0,0-1.11,4,36.8,36.8,0,0,0,10.94,33,43.86,43.86,0,0,0,12,8,100.39,100.39,0,0,0,14.53,5.38l1.7,1.2q4.11,2.56,7.27,4.36c2.1,1.19,4.13,2.28,6.06,3.25s4,1.9,6.07,2.82,4.53,2,7.26,3.24l19.83,12.65a3,3,0,0,1,.77.6,6.43,6.43,0,0,0,.94.77,11.43,11.43,0,0,1,1.19,1l3.08,8.55a23.41,23.41,0,0,1,1.28,2.65,6.69,6.69,0,0,0,1.28,2.13,11.28,11.28,0,0,1,1.71,1.71c.8.91,1.63,1.91,2.48,3s1.6,2.11,2.22,3.08a5,5,0,0,1,.94,2c.34.69.77,1.69,1.28,3s1,2.65,1.54,4,1,2.68,1.37,3.93a10.42,10.42,0,0,1,.6,2.73v25.13a21.7,21.7,0,0,1-.77,2.22,19.64,19.64,0,0,1-1.62,3.42,1.54,1.54,0,0,0-.86.85,6.42,6.42,0,0,0-.34.86c-.12.34-.37,1.08-.77,2.22s-.83,2.39-1.28,3.76-.91,2.62-1.37,3.76a8.38,8.38,0,0,1-1,2,11.69,11.69,0,0,1-1.8,3.24,28.8,28.8,0,0,1-2.82,3.25,40.35,40.35,0,0,1-3,2.74c-1,.79-1.68,1.36-2.14,1.71a8.23,8.23,0,0,0-1.7,4.44,4.38,4.38,0,0,1-2.06,3.59A46.35,46.35,0,0,0,871,450.12q-4.27,3-8.12,5.64a48.51,48.51,0,0,1-8.12,4.53A26.88,26.88,0,0,1,844,462.17H842c-3.07-.23-5.1-.37-6.06-.43s-1.68-.08-2.14-.08Z" transform="translate(-59.61 -215.05)"/><path class="cls-1" d="M59.61,694.48a19.93,19.93,0,0,1,2.14-9.06,29.57,29.57,0,0,0,2.82-8.88c0-.23.05-.91.17-2s.25-2.37.43-3.68.34-2.53.51-3.67a15.41,15.41,0,0,1,.43-2.22c.22-.34.68-1.17,1.36-2.48s1.4-2.68,2.14-4.1,1.48-2.76,2.22-4,1.22-2.05,1.45-2.39a7.35,7.35,0,0,1,.17-.94c.12-.51.26-1,.43-1.54s.31-1,.43-1.54a7.06,7.06,0,0,0,.17-.94,77.52,77.52,0,0,1,14-20.93,152.07,152.07,0,0,1,18.8-17l1.63-.85c.85-.46,1.73-.94,2.64-1.45s1.77-1,2.57-1.54a4.67,4.67,0,0,0,1.37-1.11,11.62,11.62,0,0,0,3.07-1.63,22.45,22.45,0,0,0,2.22-1.62c.12-.11.4-.43.86-.94l1.45-1.62a22.64,22.64,0,0,1,1.62-1.63c.57-.51,1-.77,1.2-.77a3.86,3.86,0,0,1,1.28-.42c.74-.17,1.6-.34,2.57-.52s1.85-.31,2.64-.42a12.77,12.77,0,0,1,1.71-.17,6.9,6.9,0,0,1,1-.69c.57-.34,1.22-.71,2-1.11a22.69,22.69,0,0,1,2.14-1,4.52,4.52,0,0,1,1.37-.43h1.54a13.78,13.78,0,0,0,3.76-1.71q1.88-1.2,3.84-2.31a42.28,42.28,0,0,1,3.93-2,10,10,0,0,1,4-.86h1a4.43,4.43,0,0,0,1.46,1.11,4.33,4.33,0,0,0,1.79.77c.45-.22,1.28-.71,2.48-1.45a15.71,15.71,0,0,0,2.48-1.79q5.46-.85,10.93-1.37c3.65-.34,7.29-.51,10.94-.51s7.35.17,11.11.51,7.57.8,11.45,1.37c.11,0,.77.11,2,.34s2.59.51,4.19.85l4.79,1a28.43,28.43,0,0,1,3.76,1,5.29,5.29,0,0,1,1.62.69,5.32,5.32,0,0,0,1.62.68,9.64,9.64,0,0,0,1.11,1.37l2.06,2.22c.73.8,1.45,1.51,2.13,2.13a5.44,5.44,0,0,0,1.54,1.12,8.48,8.48,0,0,0,2.31.59c1.08.18,2.27.35,3.59.52s2.62.28,3.93.34,2.47.08,3.5.08h1.37a4.58,4.58,0,0,0,.77,1.29,15.58,15.58,0,0,0,1.36,1.53,17.06,17.06,0,0,0,1.54,1.37,7.37,7.37,0,0,0,1.11.77,2.74,2.74,0,0,0,.94.43c.51.17,1.05.34,1.63.51s1.36.43,2.39.77c.22,0,.79.51,1.71,1.54l1.53,1.71a18.74,18.74,0,0,0,3.59,2c1.26.51,2.54,1,3.85,1.45l3.84,1.37a15.79,15.79,0,0,1,3.59,1.88c.23,0,.74.46,1.54,1.37a9.58,9.58,0,0,0,2.05,1.88q7.18,8.2,13.16,16a159,159,0,0,1,11.28,16.83,60.23,60.23,0,0,1,3.67,7.78c1.31,3.24,2.54,6.61,3.68,10.08s2.08,6.86,2.82,10.17a75.26,75.26,0,0,1,1.45,8.2v13a10,10,0,0,0,.69,2.82,8.17,8.17,0,0,0,1,2.31v.85a42.54,42.54,0,0,1-.68,7.86,66.63,66.63,0,0,1-1.71,6.92c-.69,2.22-1.43,4.48-2.22,6.75s-1.54,4.68-2.23,7.18a38.89,38.89,0,0,0-.85,5.3c-.11,1.48-.26,2.9-.43,4.27a22.64,22.64,0,0,1-.94,4.19,21.82,21.82,0,0,1-2.39,4.87c-.11.11-.43.4-.94.85l-1.62,1.46c-.57.51-1.11,1-1.63,1.53l-.94.94c-.11.12-.42.58-.94,1.37s-1,1.68-1.53,2.65-1,1.85-1.54,2.65-.83,1.31-.94,1.54a54,54,0,0,1-5.3,7q-2.91,3.26-6.15,6.24t-6.58,5.81q-3.33,2.82-6.58,5.73c-.8.57-2.08,1.6-3.85,3.07s-3.62,3-5.55,4.62-3.76,3.07-5.47,4.44l-3.42,2.74a16.7,16.7,0,0,1-4.36,2q-3,1-6.06,2.22a43.75,43.75,0,0,0-5.39,2.48c-1.53.85-2.3,1.85-2.3,3a4,4,0,0,0,.68,2.65,20.68,20.68,0,0,0,2.73,2.3,9.43,9.43,0,0,1,1.71,1.2c.69.57,1.37,1.11,2.05,1.62s1.31,1,1.88,1.46.91.74,1,.85.57.06,1.37.17,1.65.26,2.56.43,1.77.34,2.56.51a10.3,10.3,0,0,0,1.54.26,26.76,26.76,0,0,0,2.48,1.28c1.31.63,2.7,1.34,4.19,2.14s2.87,1.5,4.18,2.13a8.64,8.64,0,0,0,2.48.94,33.23,33.23,0,0,0,9.83,3.08,83.45,83.45,0,0,1,10,2,5.07,5.07,0,0,1,1.62.77c.85.51,1.39.82,1.62.94.8.34,2,.77,3.51,1.28l4.61,1.54c1.54.51,2.93,1,4.19,1.36a11.12,11.12,0,0,0,2.39.6c.45.12,1.57.34,3.33.69s3.68.68,5.73,1l5.72.94c1.77.29,2.88.48,3.34.6s1.73.54,3.84,1.28,4.47,1.54,7.09,2.39l7.86,2.57,6,2q3.08,1.2,6.06,2c2,.57,4,1.23,5.9,2s3.84,1.56,5.72,2.48a24.33,24.33,0,0,1,5.39,3.59l6.24,1.19q4.51.85,9.57,1.88c3.35.69,6.49,1.34,9.39,2s4.88,1.11,5.9,1.45a9.51,9.51,0,0,1,2.65.77,9.17,9.17,0,0,1,2.31,1.11,67.32,67.32,0,0,0,11.79,3.33q6,1.11,12.13,1.8t12.22,1.19q6.06.53,12.05,1.54a9,9,0,0,0,2.22,1.11,10.88,10.88,0,0,0,2.22.77h5.3a12.07,12.07,0,0,0,2.31-.77l2.82-1.11h16.23l1.71-1.37h24.61a4.51,4.51,0,0,0,1.54-.68c.8-.46,1.48-.85,2.05-1.2a38.61,38.61,0,0,1,5.81-2.81c1.94-.75,3.9-1.4,5.9-2s4-1.11,6.15-1.62,4.3-1.11,6.58-1.8a16.41,16.41,0,0,0,6.07-2.65l5.64-3.93a53.83,53.83,0,0,1,5.72-3.5,13.62,13.62,0,0,1,6.5-1.54,9.62,9.62,0,0,1,4.52.94,7.42,7.42,0,0,1,2.82,2.48,10,10,0,0,1,1.46,3.59,21.18,21.18,0,0,1,.42,4.27,15.53,15.53,0,0,1-1.19,6.07,24.85,24.85,0,0,1-3.08,5.29A36.79,36.79,0,0,1,567,885c-1.6,1.48-3.19,2.85-4.79,4.11a78.4,78.4,0,0,1-14.44,9.4q-7.26,3.59-15.12,7.17a18.82,18.82,0,0,1-4.62,1.46c-1.59.28-3.16.56-4.7.85s-3.07.62-4.61,1a22.5,22.5,0,0,0-4.36,1.63c-.34.23-1,.62-2.13,1.2s-2.26,1.19-3.51,1.88l-3.59,2a23.92,23.92,0,0,0-2.39,1.45q-12.81.35-25.12,1.8a216,216,0,0,1-25.12,1.45H438.32a21.6,21.6,0,0,0-7.69-1.88,43.38,43.38,0,0,1-8.54-1.37,4.09,4.09,0,0,1-1.54-.85,6.28,6.28,0,0,0-1.37-.86H408.76q-.86-.16-4.53-1l-8-1.88c-2.91-.68-5.79-1.37-8.63-2s-5-1.2-6.5-1.54a6.28,6.28,0,0,1-1.79-.77,9.21,9.21,0,0,1-1.8-1.11h-1.54c-.91,0-1.93.06-3.07.17s-2.39.17-3.76.17a25.26,25.26,0,0,1-4-.34,10.54,10.54,0,0,1-3.84-1.37,4.16,4.16,0,0,1-1-.94l-1.45-1.62c-.51-.57-1-1.11-1.54-1.62a5,5,0,0,0-1.11-.94h-6.49a13.1,13.1,0,0,1-2-.43c-1.08-.29-2.28-.63-3.59-1L340.4,898l-2.22-.68a16,16,0,0,1-1.8-.26c-1-.17-2-.34-3.16-.51s-2.2-.34-3.16-.51a16.93,16.93,0,0,1-2-.43c-.23,0-.77-.49-1.62-1.45s-1.4-1.57-1.62-1.8-1.14-.31-2.4-.59-2.62-.63-4.1-1-2.85-.74-4.1-1-2.05-.48-2.39-.59-.83-.4-1.8-.86-2-1-3.16-1.54-2.19-1.08-3.16-1.53a19.9,19.9,0,0,0-2-.86,3.25,3.25,0,0,0-1.11-.43c-.62-.17-1.31-.34-2.05-.51l-2.13-.51a10,10,0,0,0-1.2-.26c-.57-.23-1.48-.54-2.73-.94a11.9,11.9,0,0,1-2.4-.94,9,9,0,0,1-2.22-1q-1.87-1-4.1-2.14t-4.19-2.14a24.56,24.56,0,0,0-2.47-1.19H267.08a4.2,4.2,0,0,1-1.54-.94c-.79-.63-1.65-1.34-2.56-2.14s-1.74-1.51-2.48-2.14a5.9,5.9,0,0,1-1.28-1.28,10.58,10.58,0,0,0-5.81-2,15.62,15.62,0,0,1-5.81-1.28,47.2,47.2,0,0,1-9-5.22,35.58,35.58,0,0,0-9.32-4.87,13.2,13.2,0,0,1-1.71-.25c-.91-.17-1.9-.34-3-.52s-2.11-.31-3.07-.42a18.78,18.78,0,0,0-2-.17c-.57-.23-1.51-.55-2.82-.94s-2-.72-2.13-.94c-.12,0-.32-.26-.6-.77s-.6-1.06-.94-1.63-.69-1.11-1-1.62a8.52,8.52,0,0,0-.68-.94h-5.13a5,5,0,0,1-1.62-.77,5.17,5.17,0,0,0-1.62-.77,20,20,0,0,0-2.14-.85c-1-.34-2-.69-3.08-1s-2.05-.65-2.9-.94a7.55,7.55,0,0,0-1.63-.42H190a3.38,3.38,0,0,1-1.37-.77l-2.14-1.63c-.74-.57-1.39-1.11-2-1.62s-.92-.83-1-.94a18.9,18.9,0,0,0-2.73-.94,16.22,16.22,0,0,0-2.39-.6,12.94,12.94,0,0,1-1.88-.94c-.92-.51-1.88-1-2.91-1.54s-2-1-3-1.53a11.08,11.08,0,0,0-2.14-1,7,7,0,0,1-1-.68c-.46-.34-.94-.71-1.45-1.11a16.49,16.49,0,0,0-1.46-1,2.56,2.56,0,0,0-.85-.43,7.57,7.57,0,0,0-1.28-.43c-.63-.17-1.31-.34-2-.51s-1.43-.34-2.05-.52-1.12-.31-1.46-.42-1.08-.06-2.22-.17-2.36-.26-3.67-.43-2.51-.34-3.59-.51-1.74-.26-2-.26c-1-.45-2.68-1.22-5-2.31s-4.65-2.24-7.1-3.5-4.7-2.42-6.75-3.5a30,30,0,0,1-3.93-2.31c-.45-.34-1.36-1.17-2.73-2.48s-2.77-2.73-4.19-4.27-2.76-3-4-4.27a23.76,23.76,0,0,0-2.4-2.31,2,2,0,0,1-1-.51c-.46-.34-1-.69-1.54-1s-1.11-.68-1.62-1a12.63,12.63,0,0,0-1.12-.69q-1.53-1.18-4.44-3.59t-5.89-4.78q-3-2.4-5.22-4.27a26.22,26.22,0,0,0-2.56-2,9.08,9.08,0,0,1-.77-1.2c-.4-.68-.85-1.45-1.37-2.31s-1-1.73-1.53-2.65-.94-1.65-1.29-2.22c-.34-.79-.91-2-1.71-3.67l-2.47-5.13c-.86-1.77-1.63-3.36-2.31-4.79a20.86,20.86,0,0,1-1.2-2.82q-.86-1.7-2.22-5T68.33,744c-.92-2.27-1.74-4.33-2.48-6.15a35.56,35.56,0,0,1-1.28-3.42V723a4.23,4.23,0,0,0-.86-1.79,7,7,0,0,1-.85-1.45c-.12-.8-.32-2.2-.6-4.19s-.6-4.16-.94-6.5-.68-4.55-1-6.66-.57-3.68-.68-4.7Zm36.06,6v1.2a4.78,4.78,0,0,1,1.11,2.22,13.38,13.38,0,0,1,.6,2.22q2.39,9.24,3.85,18.55a84.59,84.59,0,0,0,4.87,18,186.54,186.54,0,0,0,11.28,24.09,157.06,157.06,0,0,0,15,22.05,4.38,4.38,0,0,0,.77.94c.4.4.71.6.94.6a7.51,7.51,0,0,0,2.31.94c1.31.4,2.14.65,2.48.77a28.3,28.3,0,0,1,2.39,2q1.88,1.71,4.1,3.67c1.48,1.31,2.91,2.54,4.27,3.67s2.23,1.88,2.57,2.23a3.22,3.22,0,0,0,1.28.34c.74.11,1.59.26,2.56.43s1.85.31,2.65.42a12.77,12.77,0,0,0,1.71.17A11.2,11.2,0,0,0,162,806c.91.52,1.94,1.06,3.08,1.63s2.19,1.11,3.16,1.62a16,16,0,0,0,2,.94,19.8,19.8,0,0,0,2.74.43c1.48.17,3,.34,4.7.51l4.7.51c1.48.17,2.39.26,2.73.26a6.67,6.67,0,0,1,1.11.26l2,.51,2.05.51a7.4,7.4,0,0,0,1.36.26,19.8,19.8,0,0,0,2.23.17c.57,0,1.13,0,1.71.08a13.46,13.46,0,0,0,1.36.09c.69,0,1.6-.06,2.74-.17s1.76-.17,1.88-.17a2.66,2.66,0,0,0,.85-.43,13.67,13.67,0,0,0,1.45-1c.52-.39,1-.76,1.54-1.11a8.52,8.52,0,0,0,.94-.68,22.38,22.38,0,0,1,5.81-1.11,10.36,10.36,0,0,0,5.81-2.14c.23-.22.71-.77,1.46-1.62s1.56-1.74,2.47-2.65l2.57-2.56a13,13,0,0,1,1.71-1.54,16.24,16.24,0,0,0,1.79-.26c1-.17,2-.34,3.16-.51s2.19-.34,3.16-.51a16.93,16.93,0,0,0,2-.43l1.11-1.11c.63-.62,1.31-1.34,2.05-2.14s1.42-1.51,2.05-2.13a6.75,6.75,0,0,1,1.28-1.11c.46-.35,1.11-.89,2-1.63s1.71-1.45,2.56-2.13,1.65-1.29,2.39-1.8a15,15,0,0,0,1.29-.94,4.15,4.15,0,0,1,1.11-.51,16.66,16.66,0,0,1,2-.6c.74-.17,1.45-.31,2.13-.43s1.09-.17,1.2-.17a3.59,3.59,0,0,0,1.28-.94l1.54-1.53c.51-.52,1-1,1.37-1.46a3.73,3.73,0,0,1,.94-.85,6.38,6.38,0,0,0,.34-1.37c.11-.68.26-1.39.43-2.13s.31-1.43.42-2.06a7.79,7.79,0,0,0,.17-1.28c.23-.57.54-1.45.94-2.65a7.4,7.4,0,0,1,.94-2.13q.18-.35.69-1.11c.34-.52.71-1,1.11-1.54a16.44,16.44,0,0,0,1-1.45,2.57,2.57,0,0,0,.43-.86,18.72,18.72,0,0,0,.43-2.56c.17-1.37.34-2.79.51-4.27s.34-2.91.51-4.28.26-2.22.26-2.56a6.53,6.53,0,0,1,.51-1.28c.35-.74.71-1.57,1.11-2.48s.77-1.74,1.12-2.48a4.79,4.79,0,0,0,.51-1.45c.11-.34.25-.91.43-1.71s.34-1.65.51-2.56.31-1.74.43-2.48a13.24,13.24,0,0,0,.17-1.45V711.06a42.48,42.48,0,0,1,2-9.74A33.36,33.36,0,0,0,279,691.24c-.11,0-.17-.06-.17-.18v-.34a.7.7,0,0,1-.17-.51,6.52,6.52,0,0,0-1.45-2.91c-1-1.36-1.57-2.22-1.79-2.56s-.32-1.14-.6-2.39-.63-2.62-1-4.1-.74-2.88-1-4.19-.49-2.14-.6-2.48a4.51,4.51,0,0,1-.6-1.11c-.28-.62-.63-1.31-1-2.05a21.75,21.75,0,0,1-1-2.14c-.29-.68-.49-1.13-.6-1.36a8.22,8.22,0,0,1-.34-2c-.11-1.08-.26-2.28-.43-3.59s-.37-2.53-.6-3.67a22.38,22.38,0,0,0-.51-2.22c0-.23-.4-.8-1.19-1.71l-2.65-3c-1-1.08-1.86-2.11-2.65-3.08a8.6,8.6,0,0,1-1.37-2,26.31,26.31,0,0,1-3-6.5q-1.11-3.59-2.14-7.26a57.29,57.29,0,0,0-2.39-6.92,15.25,15.25,0,0,0-4.1-5.64,4.09,4.09,0,0,0-1.2-.52c-.68-.22-1.39-.42-2.13-.59s-1.46-.32-2.14-.43-1.08-.17-1.2-.17l-.85-.86-1.54-1.53c-.57-.57-1.08-1.11-1.54-1.63a6.21,6.21,0,0,1-.85-1.11l-1.28-.6c-.63-.28-1.34-.62-2.14-1s-1.54-.74-2.22-1a5,5,0,0,1-1.2-.6,8.35,8.35,0,0,1-1.28-.94c-.63-.51-1.31-1-2.05-1.62s-1.42-1.08-2-1.54a4.3,4.3,0,0,0-1.11-.68,53.87,53.87,0,0,0-12.39-2.39,46.27,46.27,0,0,1-12.22-2.57,28.67,28.67,0,0,0-5.47-1.45,36.11,36.11,0,0,0-4.44-.26h-9.91a8,8,0,0,0-2.57.86,8.41,8.41,0,0,1-2.39.85h-8.2a24.49,24.49,0,0,0-3.17,1.37q-2.48,1.2-5.21,2.65l-5.12,2.73a32.54,32.54,0,0,1-2.91,1.46,101,101,0,0,0-10.17,5.46,77,77,0,0,0-8.8,6.33q-4.09,3.42-7.95,7.35a106.07,106.07,0,0,0-7.6,8.71,10,10,0,0,0-2.39,5.81,31.13,31.13,0,0,1-.86,5.81l-.94,1.88c-.51,1-1,2.08-1.62,3.16s-1.11,2.11-1.63,3.08a6.24,6.24,0,0,0-.76,1.8,16.26,16.26,0,0,0-.86,3.33c-.34,1.77-.68,3.67-1,5.72s-.66,4-.94,5.73a28.86,28.86,0,0,0-.43,3.33q-1.89,7-3.5,13.42t-3.68,12.9Z" transform="translate(-59.61 -215.05)"/><path class="cls-1" d="M367.06,777.37c0-.34-.09-1.25-.26-2.74s-.34-3.07-.51-4.78-.4-3.42-.69-5.13-.48-3-.59-3.93v-2l2.05-6.15V729.52a7.27,7.27,0,0,1-.77-2,8.57,8.57,0,0,1-.09-1.28v-3.93a87.87,87.87,0,0,0-2.9-14.78q-2.06-7.09-4.45-14.44a16,16,0,0,0-4.52-3.42,8.5,8.5,0,0,1-3.85-3.76,9.29,9.29,0,0,0-3.33-3.76,45.61,45.61,0,0,0-4.19-2.39c-1.37-.69-2.56-1.34-3.59-2a2.82,2.82,0,0,1-1.54-2.48q0-3.58,3-4.44a23.25,23.25,0,0,1,6.41-.86h5.3a7.38,7.38,0,0,0,1.62-.42,7.21,7.21,0,0,1,1.63-.43,11.6,11.6,0,0,1,2-.34c1-.11,2-.23,3.17-.34s2.19-.2,3.16-.26,1.68-.09,2.13-.09h2.05a14.24,14.24,0,0,0,1.63-.08,11.34,11.34,0,0,1,1.28-.09c.8,0,1.85,0,3.16.09s2.08.08,2.31.08l13.5,1c.34,0,1.28-.09,2.82-.26s3.22-.39,5-.68l5-.77c1.54-.23,2.48-.34,2.82-.34h.34a8.65,8.65,0,0,1,6.5,2.65,8.46,8.46,0,0,1,2.56,6.06,5.59,5.59,0,0,1-2.14,4.62,19.79,19.79,0,0,1-5.12,2.9q-3,1.2-6.24,2.14a22.33,22.33,0,0,0-5.47,2.31c-.34.45-.8,1-1.37,1.71s-1.17,1.36-1.79,2.05-1.14,1.28-1.54,1.79a3,3,0,0,0-.6.94c-.23,1.26-.4,2.25-.51,3s-.2,1.43-.26,2.05-.08,1-.08,1.11l-1.2,4.11v32.3l1.2,4.1v15.72a26.88,26.88,0,0,0,1.2,5.64,17.46,17.46,0,0,1,.85,5.47L391,779.42a3.71,3.71,0,0,1,.69,1.2c.22.57.39.85.51.85a15.33,15.33,0,0,0,1.28,1.54c.63.68,1.34,1.39,2.14,2.13s1.54,1.46,2.22,2.14l1.54,1.54a4.67,4.67,0,0,1,1.11.51c.62.34,1,.57,1.28.68a18.06,18.06,0,0,0,1.79,1.37c1,.69,2,1.43,3.17,2.22s2.22,1.57,3.24,2.31a10.62,10.62,0,0,0,2.05,1.28,23,23,0,0,0,5.81,2.91,37,37,0,0,0,5.56,1.28,45.94,45.94,0,0,0,5.89.51,59.92,59.92,0,0,1,6.67.6,21.27,21.27,0,0,1,4.61,1.2,12.74,12.74,0,0,0,4.62.85l6.49-1.2,8.21,1.2a23.37,23.37,0,0,0,7.17-3.76q2.73-2.22,6.5-5.64a7.37,7.37,0,0,0,2.39-5.64,11.5,11.5,0,0,1,.26-2.39c.17-.8.36-2,.59-3.59a14.74,14.74,0,0,0,1.54-3.42c.34-1.14.63-2.25.86-3.33s.51-2.19.85-3.33a9.89,9.89,0,0,1,1.71-3.25v-15a24.19,24.19,0,0,1,1.62-8.8,24.92,24.92,0,0,0,1.63-9.14q0-1.87-.09-3.51c-.06-1.08-.2-2.42-.43-4,0-2.51,0-4.81-.17-6.92s-.23-4.28-.34-6.5-.23-4.67-.34-7.35-.23-5.89-.34-9.65c-.57-1.48-1.11-3.14-1.62-5a6.61,6.61,0,0,0-3.17-4.1,7.1,7.1,0,0,0-1-.68c-.57-.35-1.17-.69-1.8-1s-1.25-.65-1.88-.94a10.17,10.17,0,0,1-1.45-.77,24.58,24.58,0,0,0-5.72-1.79,57,57,0,0,1-7.27-2,27.92,27.92,0,0,1-6.24-3.08,5.6,5.6,0,0,1-2.64-4.87,7.92,7.92,0,0,1,1.53-5.13,8.81,8.81,0,0,1,4-2.73,20.3,20.3,0,0,1,5.38-1c1.94-.11,3.82-.17,5.64-.17h7.35l5.3,1.2H504.8a12.62,12.62,0,0,0,1.88.51c1,.23,1.82.4,2.39.51a27,27,0,0,0,2.91.43c1.48.17,3,.37,4.7.6s3.22.43,4.7.6,2.5.25,3.08.25a2.85,2.85,0,0,1,2,1.88,12.37,12.37,0,0,1,.26,2.57V675a4.93,4.93,0,0,1-.6,2.65,8.43,8.43,0,0,1-1.45,1.71,18.52,18.52,0,0,1-2,1.54,21.94,21.94,0,0,0-2.4,1.79l-2.13,2.14q-1.63,1.62-3.42,3.5l-3.42,3.59c-1.08,1.14-1.79,1.94-2.14,2.39a50,50,0,0,0-4.61,5,12.12,12.12,0,0,0-2.91,6.07l-3.24,29.39a8.12,8.12,0,0,0-1.2,4.45l.34,5a7,7,0,0,0-.34,1.71c-.11.92-.2,1.88-.26,2.91s-.14,2-.25,3a7.75,7.75,0,0,1-.34,1.79q-.35,7-.34,12.74a83.26,83.26,0,0,1-.69,10.93,41.89,41.89,0,0,1-2.73,10.26,48.34,48.34,0,0,1-6.5,10.85l-4.27,4.1c-.34.34-.91,1-1.71,1.88l-2.56,2.91c-.92,1-1.83,2-2.74,2.82a27,27,0,0,1-2.05,1.79,24.89,24.89,0,0,0-3.33.26,5.44,5.44,0,0,0-2.31.59c-.23.23-.62.66-1.19,1.29L464,816.08c-.69.74-1.31,1.39-1.88,2a6.1,6.1,0,0,1-1.2,1,10.85,10.85,0,0,0-1.11.68,18.63,18.63,0,0,1-1.79,1c-.69.34-1.34.65-2,.94s-1.11.48-1.45.59a2.75,2.75,0,0,1-1.11.35,19.6,19.6,0,0,1-2,.25l-2,.17-1.11.09q-.35.17-1.71.6c-.92.28-1.88.62-2.91,1s-2,.74-3,1a12.47,12.47,0,0,0-1.79.6,17.61,17.61,0,0,1-2.4.17,12.79,12.79,0,0,1-2.05.17H433a25.62,25.62,0,0,1-9.22-1.46,39.3,39.3,0,0,0-8.55-2.13h-6.49a32.29,32.29,0,0,1-7-1.54,59.79,59.79,0,0,1-6.49-2.56c-.69-.34-1.6-.77-2.74-1.28s-2.25-1.06-3.33-1.63-2.05-1-2.91-1.45a8.62,8.62,0,0,1-1.45-.77c-.11-.11-.43-.51-.94-1.2s-1.05-1.45-1.62-2.3-1.11-1.65-1.63-2.4a3.79,3.79,0,0,1-.76-1.45c-1.83-2.05-3.62-4-5.39-5.81a19.79,19.79,0,0,1-4.19-6.66Z" transform="translate(-59.61 -215.05)"/><path class="cls-1" d="M544.79,815.82a8.88,8.88,0,0,1,1.71-5.72,13.85,13.85,0,0,1,4.19-3.51q2.47-1.37,5.38-2.65a26.36,26.36,0,0,0,5.39-3.16,15.6,15.6,0,0,0,4.18-4.95,16.93,16.93,0,0,0,1.71-8.21V785a10.89,10.89,0,0,0-.34-2.65,39.62,39.62,0,0,1-.51-6.49,32.66,32.66,0,0,1,.51-5.64,10.14,10.14,0,0,0,.34-2.48v-2.48a32,32,0,0,0-.17-3.41q-.18-1.55-.51-3.42c-.12-1.25-.23-2.57-.34-3.93s-.18-2.74-.18-4.1.06-2.48.18-3.68.22-2.42.34-3.67.45-2.48.68-3.68a19.35,19.35,0,0,0,.34-3.67,33.45,33.45,0,0,0-.6-6.24c-.4-2.11-.82-4.19-1.28-6.24a50.1,50.1,0,0,1-1.11-5.38,37.67,37.67,0,0,1-.43-5.55,10.46,10.46,0,0,1,.18-2,9,9,0,0,1,.51-1.79,12.51,12.51,0,0,0,.51-3.59.34.34,0,0,0-.09-.26.75.75,0,0,1-.08-.43v-.51c-.11-.34-.32-.82-.6-1.45s-.6-1.25-.94-1.88-.65-1.22-.94-1.8a4.74,4.74,0,0,0-.6-1c-.45-.46-1.25-1.28-2.39-2.48l-3.59-3.76c-1.25-1.31-2.48-2.53-3.67-3.67s-2-1.88-2.48-2.23c-.12-.22-.31-.56-.6-1a2.32,2.32,0,0,1-.43-1,9.39,9.39,0,0,1,2.57-6.32,12.09,12.09,0,0,1,5.3-3.76c.79-.34,1.85-.74,3.16-1.2s2.62-.88,3.93-1.28,2.48-.77,3.5-1.11a9.51,9.51,0,0,1,1.88-.51c.23,0,.8-.06,1.71-.17a19.14,19.14,0,0,1,2-.17,19.47,19.47,0,0,1,4.53.51l4.36,1a29.14,29.14,0,0,1,2.9.51,14,14,0,0,0,3.08.34,20.15,20.15,0,0,0,2.73-.17,24.23,24.23,0,0,0,2.57-.51l2.39-.35a18.75,18.75,0,0,1,2.56-.17,17,17,0,0,1,6,1,16.07,16.07,0,0,0,5.64,1l1.2.09q1,.09,2.31.09c.85,0,1.71,0,2.56.08s1.57.09,2.14.09a130.74,130.74,0,0,0,16.32-1q8.12-1,16.32-1.37a3.22,3.22,0,0,1,1.45-.76,13.2,13.2,0,0,1,1.8-.09,15.22,15.22,0,0,1,6.66,5,20.82,20.82,0,0,1,3.25,7.17c0,.23,0,.69.08,1.37s.14,1.43.26,2.22.23,1.54.34,2.22a3,3,0,0,0,.34,1.2,2.07,2.07,0,0,0,.17.6,9,9,0,0,1,.35,1.88c.11,1,.22,2.31.34,4s.23,4,.34,6.84a4.08,4.08,0,0,1-2.31,3.59,8.37,8.37,0,0,1-4.18,1.37,11.35,11.35,0,0,1-3.08-.35,7.47,7.47,0,0,1-2.22-1,16.43,16.43,0,0,1-2.05-1.63,21.89,21.89,0,0,0-2.57-2,3.36,3.36,0,0,1-.94-.43,5.05,5.05,0,0,1-1.11-.77c-.11,0-.63-.08-1.54-.25a3.59,3.59,0,0,1-1.7-.6,12.66,12.66,0,0,1-5.39-3.85q-2-2.47-4.7-5.38c-.57,0-1.45,0-2.65-.09s-2.5-.14-3.93-.25-2.76-.23-4-.34a8.25,8.25,0,0,1-2.57-.52,8.09,8.09,0,0,1-2-.85,7,7,0,0,0-2.22-.85c-.11-.23-.77-.35-2-.35H612.3a12.83,12.83,0,0,0-5.81,1.2,12.63,12.63,0,0,0-4.11,3.25,18.17,18.17,0,0,0-2.82,4.7,36.49,36.49,0,0,0-1.79,5.38,13.35,13.35,0,0,1-.43,2.05,12.33,12.33,0,0,1-.77,2.39,2.58,2.58,0,0,0,.26.94,34.23,34.23,0,0,1,.94,3.85,39,39,0,0,1-1.45,10.51,39.59,39.59,0,0,0-1.45,10.68,2.94,2.94,0,0,0,1,2.39,5.93,5.93,0,0,0,2.48,1.2,17.46,17.46,0,0,0,3.08.43c1.08,0,2,.08,2.81.08h3.94a21.91,21.91,0,0,0,2.3-.17l2.82-.34c.91-.11,1.74-.23,2.48-.34s1.11-.23,1.11-.34a3.59,3.59,0,0,0,1-.6c.57-.4,1.16-.86,1.79-1.37l2-1.62c.68-.57,1.19-1,1.53-1.37s.77-.74,1.29-1.2,1-.94,1.53-1.45,1-1,1.37-1.45.66-.74.77-.86a7.61,7.61,0,0,0,1.62-4.44c.06-1.59.17-3,.35-4.36a5.64,5.64,0,0,1,1.45-3.24c.79-.86,2.45-1.29,4.95-1.29,3.31,0,5.64,1,7,3.08a13.87,13.87,0,0,1,2,7.86,12.78,12.78,0,0,1-.68,4.61,26.18,26.18,0,0,1-1.45,3.08,21.62,21.62,0,0,0-1.37,2.91,10.9,10.9,0,0,0-.6,3.93,7,7,0,0,0,.86,3.67,10.36,10.36,0,0,1,1.19,3.33l.86,11.28a3.32,3.32,0,0,1,.42,1c.17.57.37,1.22.6,2s.46,1.49.68,2.23a6.43,6.43,0,0,1,.35,1.79,16,16,0,0,0-.26,2c-.06.8-.14,1.6-.26,2.39s-.23,1.83-.34,2.74a4.09,4.09,0,0,1-.85,1.28,15.3,15.3,0,0,1-1.63,1.54,23.63,23.63,0,0,1-2,1.45,3.28,3.28,0,0,1-1.71.68c-.46,0-1,0-1.71-.08s-1.08-.31-1.2-.77a5,5,0,0,1-.68-2,16.37,16.37,0,0,1-.34-2.05c-.57-1-1.31-2.28-2.22-3.76s-1.94-3-3.08-4.7a57.72,57.72,0,0,0-3.76-4.87,34.45,34.45,0,0,0-4.1-4.1,8.5,8.5,0,0,0-4-1.63,30.45,30.45,0,0,0-3.5-.25l-6.66,2.22a6.48,6.48,0,0,1-1.63-.51,5.68,5.68,0,0,0-1.79-.52h-.69a1.13,1.13,0,0,1-.51-.08,1.14,1.14,0,0,0-.51-.09,4.09,4.09,0,0,0-2.22,1,17.35,17.35,0,0,0-2.65,2.47,26.69,26.69,0,0,0-2.31,3,5,5,0,0,0-1,2.56c0,.23-.06.94-.18,2.14s-.17,2.19-.17,3v1a5.84,5.84,0,0,0,.17,1.37,10.25,10.25,0,0,0,.18,1.71,40.17,40.17,0,0,0,.51,4.87q.51,3.5,1.19,7.35t1.29,7.35c.39,2.33.65,4,.76,4.87a19.37,19.37,0,0,1,3.42,4.7c.69,1.42,1.34,2.7,2,3.84a6.41,6.41,0,0,0,2.73,2.65,13,13,0,0,0,5.73.94,42.3,42.3,0,0,0,8.46-.85,70.6,70.6,0,0,1,8.46-1.2h4.1a7.22,7.22,0,0,0,2-.86,10,10,0,0,0,2-1.19l4.1-.86a8.5,8.5,0,0,1,1.79-.59c.74-.17,1.12-.37,1.12-.6.34-.23,1.19-.88,2.56-2a10.62,10.62,0,0,1,2.73-1.79,7.33,7.33,0,0,1,3.59-1.63,5.55,5.55,0,0,0,3.25-1.62,43.49,43.49,0,0,0,4-3.84q1.95-2.14,4-4a19,19,0,0,1,4.53-3.08,12.69,12.69,0,0,1,5.55-1.19h3.59a3.66,3.66,0,0,1,1.71,2.39,14,14,0,0,1,.34,3.08A28,28,0,0,1,676,801.29a3.46,3.46,0,0,1-.6,1c-.4.57-.85,1.2-1.36,1.88s-1,1.34-1.37,2-.66,1.06-.77,1.29a2.44,2.44,0,0,0-.34,1,16.1,16.1,0,0,0-.26,1.88c-.06.69-.14,1.34-.25,2a2.69,2.69,0,0,1-.35,1.11,3.18,3.18,0,0,1-.25,1,2.83,2.83,0,0,1-.6,1,16.89,16.89,0,0,1-1.28,1.54c-.63.68-1.34,1.39-2.14,2.13s-1.54,1.46-2.22,2.14l-1.37,1.37h-1.54a37.53,37.53,0,0,0-6.15.51,50.88,50.88,0,0,1-7.18.51,18.07,18.07,0,0,1-6.49-1.11,20.25,20.25,0,0,0-7.18-1.11c-.57,0-1.48,0-2.73.08l-2.22.09-8,1.2a49.84,49.84,0,0,1-7.69.77q-3.93.07-7.86.08H593.33a20,20,0,0,1-4.79-.51,18.4,18.4,0,0,0-4.44-.51,6.17,6.17,0,0,0-3.33,1,5.91,5.91,0,0,1-3.17,1l-9.39-2.05a11.88,11.88,0,0,0-1.37.25l-2.74.6c-1,.23-2.11.45-3.24.68s-2.05.4-2.74.52a19.67,19.67,0,0,1-4.36-.52,15.46,15.46,0,0,1-4.27-1.62,12.06,12.06,0,0,1-3.33-2.73A6,6,0,0,1,544.79,815.82Z" transform="translate(-59.61 -215.05)"/><path class="cls-1" d="M705.27,815.82a8.88,8.88,0,0,1,1.7-5.72,13.85,13.85,0,0,1,4.19-3.51c1.65-.91,3.45-1.79,5.38-2.65a26.1,26.1,0,0,0,5.39-3.16,15.75,15.75,0,0,0,4.19-4.95,17.05,17.05,0,0,0,1.7-8.21V785a10.89,10.89,0,0,0-.34-2.65,39.62,39.62,0,0,1-.51-6.49,32.66,32.66,0,0,1,.51-5.64,10.14,10.14,0,0,0,.34-2.48v-2.48a29.55,29.55,0,0,0-.17-3.41q-.17-1.55-.51-3.42c-.11-1.25-.23-2.57-.34-3.93s-.17-2.74-.17-4.1,0-2.48.17-3.68.23-2.42.34-3.67.45-2.48.68-3.68a19.35,19.35,0,0,0,.35-3.67,33.45,33.45,0,0,0-.6-6.24q-.6-3.16-1.28-6.24a47.78,47.78,0,0,1-1.11-5.38,36.36,36.36,0,0,1-.43-5.55,10.47,10.47,0,0,1,.17-2,9,9,0,0,1,.51-1.79,12.51,12.51,0,0,0,.51-3.59.34.34,0,0,0-.08-.26.66.66,0,0,1-.09-.43v-.51c-.11-.34-.31-.82-.59-1.45s-.6-1.25-.94-1.88-.66-1.22-1-1.8a5.4,5.4,0,0,0-.59-1c-.46-.46-1.26-1.28-2.4-2.48l-3.58-3.76c-1.26-1.31-2.48-2.53-3.68-3.67s-2-1.88-2.48-2.23q-.16-.33-.6-1a2.27,2.27,0,0,1-.42-1,9.38,9.38,0,0,1,2.56-6.32,12.15,12.15,0,0,1,5.3-3.76c.8-.34,1.85-.74,3.16-1.2s2.62-.88,3.93-1.28S727,670,728,669.7a9.33,9.33,0,0,1,1.88-.51c.22,0,.79-.06,1.7-.17a19.14,19.14,0,0,1,2-.17,19.41,19.41,0,0,1,4.53.51l4.36,1q1.37.17,2.91.51a14,14,0,0,0,3.07.34,20.2,20.2,0,0,0,2.74-.17,24.08,24.08,0,0,0,2.56-.51l2.39-.35a18.79,18.79,0,0,1,2.57-.17,17,17,0,0,1,6,1,16,16,0,0,0,5.64,1l1.19.09q1,.09,2.31.09c.86,0,1.71,0,2.56.08s1.57.09,2.14.09a130.74,130.74,0,0,0,16.32-1q8.11-1,16.32-1.37a3.22,3.22,0,0,1,1.45-.76,13.2,13.2,0,0,1,1.8-.09,15.22,15.22,0,0,1,6.66,5,20.64,20.64,0,0,1,3.25,7.17c0,.23,0,.69.09,1.37s.14,1.43.25,2.22.23,1.54.35,2.22a2.79,2.79,0,0,0,.34,1.2,1.79,1.79,0,0,0,.17.6,10,10,0,0,1,.34,1.88c.11,1,.23,2.31.34,4s.23,4,.34,6.84a4.08,4.08,0,0,1-2.3,3.59,8.43,8.43,0,0,1-4.19,1.37,11.35,11.35,0,0,1-3.08-.35,7.59,7.59,0,0,1-2.22-1,17.19,17.19,0,0,1-2-1.63,21.71,21.71,0,0,0-2.56-2,3.12,3.12,0,0,1-.94-.43,4.81,4.81,0,0,1-1.11-.77c-.12,0-.63-.08-1.54-.25a3.69,3.69,0,0,1-1.71-.6,12.56,12.56,0,0,1-5.38-3.85q-2-2.47-4.7-5.38c-.57,0-1.46,0-2.65-.09s-2.51-.14-3.93-.25-2.77-.23-4-.34a8.17,8.17,0,0,1-2.56-.52,7.94,7.94,0,0,1-2-.85,7,7,0,0,0-2.23-.85c-.11-.23-.76-.35-2-.35h-2.65a12.83,12.83,0,0,0-5.81,1.2,12.59,12.59,0,0,0-4.1,3.25,18.17,18.17,0,0,0-2.82,4.7,37.75,37.75,0,0,0-1.8,5.38,14.11,14.11,0,0,1-.42,2.05,13.93,13.93,0,0,1-.77,2.39,2.52,2.52,0,0,0,.25.94,30,30,0,0,1,.94,3.85,39,39,0,0,1-1.45,10.51,39.59,39.59,0,0,0-1.45,10.68,2.94,2.94,0,0,0,1,2.39,6,6,0,0,0,2.48,1.2,17.46,17.46,0,0,0,3.08.43c1.08,0,2,.08,2.82.08h3.93A21.89,21.89,0,0,0,771,736l2.82-.34c.91-.11,1.73-.23,2.47-.34s1.11-.23,1.11-.34a3.46,3.46,0,0,0,1-.6c.57-.4,1.17-.86,1.79-1.37s1.29-1,2-1.62,1.2-1,1.54-1.37.77-.74,1.28-1.2,1-.94,1.54-1.45,1-1,1.37-1.45.65-.74.76-.86a7.69,7.69,0,0,0,1.63-4.44c.05-1.59.17-3,.34-4.36a5.64,5.64,0,0,1,1.45-3.24q1.2-1.29,5-1.29c3.3,0,5.64,1,7,3.08a13.87,13.87,0,0,1,2.06,7.86,12.54,12.54,0,0,1-.69,4.61,24.67,24.67,0,0,1-1.45,3.08,22.92,22.92,0,0,0-1.37,2.91,10.9,10.9,0,0,0-.6,3.93,7.14,7.14,0,0,0,.86,3.67,9.91,9.91,0,0,1,1.19,3.33l.86,11.28a3.24,3.24,0,0,1,.43,1l.59,2,.69,2.23a6.74,6.74,0,0,1,.34,1.79,16,16,0,0,0-.26,2c-.06.8-.14,1.6-.25,2.39s-.23,1.83-.34,2.74a4.16,4.16,0,0,1-.86,1.28,16.16,16.16,0,0,1-1.62,1.54,23.79,23.79,0,0,1-2,1.45,3.25,3.25,0,0,1-1.71.68c-.45,0-1,0-1.71-.08s-1.08-.31-1.19-.77a5,5,0,0,1-.69-2,16.37,16.37,0,0,1-.34-2.05c-.57-1-1.31-2.28-2.22-3.76s-1.94-3-3.08-4.7a59.74,59.74,0,0,0-3.75-4.87,34.5,34.5,0,0,0-4.11-4.1,8.47,8.47,0,0,0-4-1.63,30.75,30.75,0,0,0-3.51-.25l-6.66,2.22a6.34,6.34,0,0,1-1.62-.51,5.79,5.79,0,0,0-1.8-.52h-.68a1.2,1.2,0,0,1-.52-.08,1.11,1.11,0,0,0-.51-.09,4.09,4.09,0,0,0-2.22,1,18.34,18.34,0,0,0-2.65,2.47,29.28,29.28,0,0,0-2.31,3,5,5,0,0,0-1,2.56c0,.23-.06.94-.17,2.14s-.17,2.19-.17,3v1a5.36,5.36,0,0,0,.17,1.37,10.09,10.09,0,0,0,.17,1.71,40.17,40.17,0,0,0,.51,4.87q.51,3.5,1.2,7.35t1.28,7.35c.4,2.33.65,4,.77,4.87a19.92,19.92,0,0,1,3.42,4.7c.68,1.42,1.33,2.7,2,3.84a6.43,6.43,0,0,0,2.74,2.65,12.92,12.92,0,0,0,5.72.94,42.15,42.15,0,0,0,8.46-.85,70.6,70.6,0,0,1,8.46-1.2H794a7.22,7.22,0,0,0,2-.86,10.1,10.1,0,0,0,2-1.19l4.1-.86a8.82,8.82,0,0,1,1.8-.59q1.11-.26,1.11-.6c.34-.23,1.2-.88,2.56-2a10.43,10.43,0,0,1,2.74-1.79,7.25,7.25,0,0,1,3.59-1.63,5.53,5.53,0,0,0,3.24-1.62,42.26,42.26,0,0,0,4-3.84q2-2.14,4-4a18.73,18.73,0,0,1,4.52-3.08,12.74,12.74,0,0,1,5.56-1.19h3.59a3.66,3.66,0,0,1,1.71,2.39,14.68,14.68,0,0,1,.34,3.08,28.14,28.14,0,0,1-4.27,14.86,3.46,3.46,0,0,1-.6,1c-.4.57-.86,1.2-1.37,1.88s-1,1.34-1.37,2-.65,1.06-.77,1.29a2.44,2.44,0,0,0-.34,1,16.2,16.2,0,0,0-.25,1.88c-.06.69-.15,1.34-.26,2a2.92,2.92,0,0,1-.34,1.11,3.26,3.26,0,0,1-.26,1,2.83,2.83,0,0,1-.6,1,15.33,15.33,0,0,1-1.28,1.54q-.95,1-2.13,2.13c-.8.74-1.54,1.46-2.23,2.14l-1.36,1.37h-1.54a37.53,37.53,0,0,0-6.15.51,51.09,51.09,0,0,1-7.18.51,18.13,18.13,0,0,1-6.5-1.11,20.19,20.19,0,0,0-7.17-1.11c-.57,0-1.49,0-2.74.08l-2.22.09-8,1.2a50,50,0,0,1-7.69.77q-3.93.07-7.86.08H753.8a19.9,19.9,0,0,1-4.78-.51,18.42,18.42,0,0,0-4.45-.51,6.17,6.17,0,0,0-3.33,1,5.88,5.88,0,0,1-3.16,1l-9.4-2.05a12.29,12.29,0,0,0-1.37.25l-2.73.6c-1,.23-2.11.45-3.25.68s-2.05.4-2.73.52a19.67,19.67,0,0,1-4.36-.52,15.41,15.41,0,0,1-4.28-1.62,12.06,12.06,0,0,1-3.33-2.73A6,6,0,0,1,705.27,815.82Z" transform="translate(-59.61 -215.05)"/><path class="cls-1" d="M862,815.82a6.6,6.6,0,0,1,.85-1.88c.57-1,1-1.71,1.2-2.05a12.85,12.85,0,0,1,6.49-4.36,27,27,0,0,1,8-1.28h2.13a6.48,6.48,0,0,1,2,.34,13.18,13.18,0,0,0,3.16-3.25,20.68,20.68,0,0,0,2.14-4.1,18.29,18.29,0,0,1-.35-2.3,36.75,36.75,0,0,1-.17-3.68c0-1.25.06-2.48.17-3.67a19.27,19.27,0,0,1,.35-2.48,12,12,0,0,1,1.71-5A9.58,9.58,0,0,0,891,777v-1.54l-2-4.1v-5q-.51-4.62-1.37-9.31a53.9,53.9,0,0,1-.85-9.66L889,735l-.34-6.5V727a3.16,3.16,0,0,1,.34-1.45q.35-2.75.6-5.47c.17-1.82.26-3.65.26-5.47s-.09-3.62-.26-5.38-.37-3.62-.6-5.56a18.57,18.57,0,0,1-.26-4,8.8,8.8,0,0,0-.76-4,31,31,0,0,0-3.25-4.87,25.07,25.07,0,0,0-4.1-4,9.43,9.43,0,0,0-4.45-2.13c-1.59-.29-3.22-.52-4.87-.69a17,17,0,0,1-4.61-1.11,7,7,0,0,1-3.5-3.42.66.66,0,0,1-.18-.51,1,1,0,0,1-.17-.68,3.38,3.38,0,0,1,.94-2.48,6.47,6.47,0,0,1,2.23-1.45,10.59,10.59,0,0,1,2.82-.69c1-.11,1.88-.22,2.56-.34h7.18a23,23,0,0,0,5-1.37,14.84,14.84,0,0,1,5.38-1h1.2c.57,0,.85.11.85.34a11.33,11.33,0,0,1,1.88,1,6.4,6.4,0,0,0,2.22,1h7l11.28.86a2.13,2.13,0,0,0,1.45.34h1.46a14.42,14.42,0,0,0,4.52-.6,15.22,15.22,0,0,1,4.7-.6q6.16,0,12.65.51A62.16,62.16,0,0,1,951,676.2c2.73.79,5.35,1.45,7.86,2A61,61,0,0,1,966,680a27,27,0,0,1,6.32,3.08,21.35,21.35,0,0,1,5.56,5.55q2.05,3.08,3.33,5a18.29,18.29,0,0,1,2,3.93,17.32,17.32,0,0,1,.85,4.45q.16,2.48.17,6.41a22.86,22.86,0,0,1-.94,6.58,13.47,13.47,0,0,1-3.5,5.72c-.34.34-1,1-1.88,2.05s-1.94,2.08-3.08,3.16-2.19,2.14-3.16,3.16-1.62,1.71-2,2.06a12.7,12.7,0,0,0-2.31.34c-1.09.23-1.68.51-1.8.85-.23.12-.76.37-1.62.77s-1.77.8-2.73,1.2-1.86.8-2.65,1.19a7,7,0,0,1-1.37.6,8.75,8.75,0,0,1-2,.51c-.75.12-1.46.26-2.14.43a4,4,0,0,0-1.71.86,2.23,2.23,0,0,0-.68,1.79,17.5,17.5,0,0,0,.68,4.7,28.16,28.16,0,0,0,1.79,4.79,26.46,26.46,0,0,0,2.65,4.35,14.69,14.69,0,0,0,3.25,3.25,16.88,16.88,0,0,0,1.62,1.28,4.56,4.56,0,0,0,1.63.94l1,1.2a9.17,9.17,0,0,1,1.63,2,10.34,10.34,0,0,0,1.79,2.14c.91,1,1.65,1.82,2.22,2.39s1.11,1.14,1.63,1.71.88,1,1.11,1.2l1,2.13c.57,1.2,1.2,2.48,1.88,3.85s1.34,2.65,2,3.84,1,2,1.28,2.31a15.11,15.11,0,0,0,1,1.54c.57.8,1.23,1.71,2,2.73s1.51,2,2.31,3a27.68,27.68,0,0,0,1.88,2.14A23.8,23.8,0,0,0,989,795c1.36,1,2.79,2.17,4.27,3.42l8.37,6.15,10.6,1.2a15.88,15.88,0,0,1,2.22.85,15,15,0,0,1,3,1.8,16.75,16.75,0,0,1,2.56,2.39,4,4,0,0,1,1.12,2.65,6.11,6.11,0,0,1-.86,2.3,21,21,0,0,1-2.13,3.25,22.44,22.44,0,0,1-2.74,2.91,4.24,4.24,0,0,1-2.65,1.28H998.53a12.12,12.12,0,0,0-5.47-2.22c-2.39-.46-4.39-.8-6-1H974.6q-6.84-2.38-10.08-7.09a45.21,45.21,0,0,1-5.47-11.19,5.78,5.78,0,0,0-.6-1.63,21.23,21.23,0,0,0-2.48-3.67l-1.19-5.13a3.26,3.26,0,0,0-.26-1,2.83,2.83,0,0,0-.6-1c-.68-1-1.62-2.42-2.82-4.19s-2.39-3.56-3.59-5.38-2.28-3.39-3.24-4.7-1.51-2.08-1.63-2.31l-12.3-13.5a21.21,21.21,0,0,0-5.47-3.93,13.72,13.72,0,0,0-6.15-1.54,3.9,3.9,0,0,0-1.2.17,1.61,1.61,0,0,0-.85,1,8,8,0,0,0,.17,1.45,12.46,12.46,0,0,1,.17,2.14,13.91,13.91,0,0,1-.17,2.22,9.36,9.36,0,0,0-.17,1.37l-.86,4.44v12.13a16.8,16.8,0,0,1-.43,2.23,20.84,20.84,0,0,1-.76,2.73,15.75,15.75,0,0,0,.94,5.9c.62,1.54,1.39,3.44,2.3,5.72l-1.19,5.3c0,2,.77,3.31,2.3,3.76a30.41,30.41,0,0,0,5,1,12.92,12.92,0,0,1,5,1.71q2.29,1.38,2.3,5.64a4.87,4.87,0,0,1-1.45,3.85,8.27,8.27,0,0,1-3.5,1.79,21.53,21.53,0,0,1-4.36.6c-1.54.06-2.88.15-4,.26H898c-.57.11-1.62.25-3.16.42s-3.19.35-5,.52-3.45.37-5,.6-2.73.4-3.42.51a13.44,13.44,0,0,1-2.82,1.71,7.37,7.37,0,0,1-2.48.34,8,8,0,0,1-4.35-1c-1.09-.68-2.31-1.42-3.68-2.22-.11,0-.63-.08-1.54-.25a3.81,3.81,0,0,1-1.71-.6,13,13,0,0,1-1.79-1.8A6.38,6.38,0,0,1,862,815.82Zm50.59-95a6.56,6.56,0,0,1,.59,2.22c.17,1.14.26,1.83.26,2.05a15.13,15.13,0,0,1,.68,3.42c.12,1.26.29,2.51.52,3.76a14.4,14.4,0,0,0,1,3.42,6,6,0,0,0,2.22,2.56,21.78,21.78,0,0,0,5.56,3.33,20.12,20.12,0,0,0,6.92.94,5.53,5.53,0,0,0,1.45-.42,5.3,5.3,0,0,1,1.45-.43l9.4-6.32a13.94,13.94,0,0,1,2.57-1.29,16.71,16.71,0,0,0,2.9-1.45,16.31,16.31,0,0,0,2.48-1.88,3.81,3.81,0,0,0,1.28-2.39c0-.23.06-.8.17-1.71s.23-1.9.34-3,.23-2.19.35-3.33.22-2,.34-2.74v-1.19a41.65,41.65,0,0,0-2.82-15,32.12,32.12,0,0,0-8.8-12.65q-1.89-1.87-3.85-3.5a7.4,7.4,0,0,0-4.87-1.63h-2.39l-10.43,1q-4.44,3.07-5.46,7.09a36.82,36.82,0,0,0-1,9.15v12.64c0,.34-.09,1.28-.26,2.82a24,24,0,0,1-.59,3.51Z" transform="translate(-59.61 -215.05)"/></svg>