<?xml version="1.0" encoding="UTF-8"?>
<svg xmlns="http://www.w3.org/2000/svg" xmlns:xlink="http://www.w3.org/1999/xlink" viewBox="0 0 150 150" width="150px" height="150px">
<g id="surface52939097">
<path style=" stroke:none;fill-rule:nonzero;fill:rgb(99.607843%,96.470588%,92.156863%);fill-opacity:1;" d="M 75 6 C 36.949219 6 6 36.949219 6 75 C 6 113.050781 36.949219 144 75 144 C 113.050781 144 144 113.050781 144 75 C 144 36.949219 113.050781 6 75 6 Z M 108.710938 61.570312 C 108.742188 62.28125 108.757812 63 108.757812 63.722656 C 108.757812 85.675781 92.039062 111 61.472656 111 C 52.089844 111 43.351562 108.25 36 103.53125 C 37.300781 103.6875 38.617188 103.765625 39.964844 103.765625 C 47.75 103.765625 54.917969 101.113281 60.601562 96.652344 C 53.328125 96.523438 47.195312 91.707031 45.074219 85.113281 C 46.09375 85.308594 47.132812 85.414062 48.207031 85.414062 C 49.722656 85.414062 51.191406 85.210938 52.582031 84.828125 C 44.984375 83.296875 39.257812 76.585938 39.257812 68.53125 C 39.257812 68.460938 39.257812 68.390625 39.257812 68.320312 C 41.5 69.566406 44.058594 70.316406 46.785156 70.402344 C 42.320312 67.417969 39.394531 62.335938 39.394531 56.570312 C 39.394531 53.527344 40.210938 50.671875 41.640625 48.214844 C 49.839844 58.265625 62.085938 64.882812 75.894531 65.578125 C 75.609375 64.359375 75.460938 63.09375 75.460938 61.789062 C 75.460938 52.613281 82.898438 45.175781 92.078125 45.175781 C 96.859375 45.175781 101.175781 47.191406 104.203125 50.421875 C 107.988281 49.675781 111.550781 48.292969 114.757812 46.390625 C 113.519531 50.269531 110.882812 53.527344 107.449219 55.585938 C 110.8125 55.175781 114.011719 54.289062 116.996094 52.964844 C 114.769531 56.296875 111.953125 59.230469 108.710938 61.570312 Z M 108.710938 61.570312 "/>
</g>
</svg>
