<?xml version="1.0" encoding="UTF-8" standalone="no"?>
<!-- Generator: Adobe Illustrator 24.1.2, SVG Export Plug-In . SVG Version: 6.00 Build 0)  -->

<svg
   version="1.1"
   id="Layer_1"
   x="0px"
   y="0px"
   viewBox="0 0 949.4 73.699999"
   xml:space="preserve"
   sodipodi:docname="Volvo-Spread-Word-Mark-White-1.svg"
   width="949.40002"
   height="73.699997"
   inkscape:version="1.1.2 (0a00cf5, 2022-02-04)"
   xmlns:inkscape="http://www.inkscape.org/namespaces/inkscape"
   xmlns:sodipodi="http://sodipodi.sourceforge.net/DTD/sodipodi-0.dtd"
   xmlns="http://www.w3.org/2000/svg"
   xmlns:svg="http://www.w3.org/2000/svg"><defs
   id="defs22" /><sodipodi:namedview
   id="namedview20"
   pagecolor="#ffffff"
   bordercolor="#666666"
   borderopacity="1.0"
   inkscape:pageshadow="2"
   inkscape:pageopacity="0.0"
   inkscape:pagecheckerboard="0"
   showgrid="false"
   fit-margin-top="0"
   fit-margin-left="0"
   fit-margin-right="0"
   fit-margin-bottom="0"
   inkscape:zoom="0.75312939"
   inkscape:cx="743.56413"
   inkscape:cy="126.80424"
   inkscape:current-layer="Layer_1" />
<style
   type="text/css"
   id="style2">
	.st0{fill:#FFFFFF;}
</style>
<g
   id="BLOCK_x5F_RECORD_2_"
   transform="translate(-0.03,-0.13)">
	<polygon
   class="st0"
   points="100.4,12.37 77.01,55.62 53.31,12.38 70.3,12.37 70.3,1.61 0.04,1.61 0.03,12.38 16.11,12.38 48.78,71.75 86.62,71.77 118.74,12.37 134.84,12.38 134.84,1.61 86.41,1.61 86.41,12.37 "
   id="polygon4" />
	<path
   class="st0"
   d="m 432.43,12.35 -0.01,-10.74 64.79,0.01 v 10.73 h -16.14 v 48.46 h 14.96 c 13.86,0 22.95,-9.16 22.95,-21.58 h 10.69 v 32.45 l -97.25,0.01 V 60.83 h 16.33 l -0.02,-48.48 z"
   id="path6" />
	<g
   id="g10">
		<path
   class="st0"
   d="m 275.33,0.13 c -32.53,0 -49.81,16.23 -49.81,36.59 0,20.65 16.64,37.11 50,37.11 33.35,0 49.81,-16.46 49.81,-37.11 0,-20.36 -17.46,-36.59 -50,-36.59 z m -0.36,62.56 c -11.88,-0.21 -17.1,-13.34 -16.88,-26.39 0.24,-13.51 6.7,-25.29 17.83,-25.1 11.13,0.2 17.01,12.2 16.77,25.71 -0.23,12.74 -5.49,26 -17.72,25.78 z"
   id="path8" />
	</g>
	<polygon
   class="st0"
   points="724.48,12.37 701.1,55.62 677.39,12.38 694.39,12.37 694.39,1.61 624.13,1.61 624.11,12.38 640.19,12.38 672.87,71.75 710.71,71.77 742.82,12.37 758.92,12.38 758.92,1.61 710.5,1.61 710.5,12.37 "
   id="polygon12" />
	<g
   id="g16">
		<path
   class="st0"
   d="m 899.43,0.13 c -32.53,0 -49.81,16.23 -49.81,36.59 0,20.65 16.64,37.11 50,37.11 33.35,0 49.81,-16.46 49.81,-37.11 0,-20.36 -17.46,-36.59 -50,-36.59 z m -0.36,62.56 c -11.88,-0.21 -17.1,-13.34 -16.88,-26.39 0.24,-13.51 6.7,-25.29 17.83,-25.1 11.13,0.2 17,12.2 16.76,25.71 -0.21,12.74 -5.47,26 -17.71,25.78 z"
   id="path14" />
	</g>
</g>
</svg>
